# xmcd
#
# Track frame offsets:
#	150
#	37788
#	57405
#	89542
#	115367
#	139338
#	181813
#	212436
#	241268
#
# Disc length: 3564 seconds
#
# Revision: 1
# Processed by: cddbd v1.5.1PL0 Copyright (c) Steve Scherf et al.
# Submitted via: CDmax 2.0
#
DISCID=770dea09
DTITLE=Jon Lord - Live at the Basement [CD2)
DYEAR=2003
DGENRE=Blues
TTITLE0=The Hoochie Coochie Man
TTITLE1=New Old Lady Blues
TTITLE2=Who's Been Talking
TTITLE3=Six Strings Down
TTITLE4=Dust My Broom
TTITLE5=Back at the Chicken Shack
TTITLE6=When a Blind Man Cries
TTITLE7=12 Bar Blow Jam
TTITLE8=(Data Track)
EXTD=
EXTT0=
EXTT1=
EXTT2=
EXTT3=
EXTT4=
EXTT5=
EXTT6=
EXTT7=
EXTT8=
PLAYORDER=
